# Blender v2.93.2 OBJ File: 'swing.blend'
# www.blender.org
mtllib swingframe.mtl
o Cylinder.001
v 0.000000 21.418543 -7.859956
v 0.000000 -0.455023 0.406176
v 0.000000 22.070034 -6.135999
v 0.000000 0.196469 2.130132
v 1.698834 21.744289 -6.997977
v 1.698834 -0.129277 1.268154
v 1.698833 21.092796 -8.721934
v 1.698833 -0.780768 -0.455803
v -0.000000 20.767052 -9.583912
v -0.000000 -1.106515 -1.317781
v -1.698834 21.092796 -8.721933
v -1.698834 -0.780768 -0.455802
v -1.698834 21.744289 -6.997977
v -1.698834 -0.129277 1.268154
vt 0.750000 0.250000
vt 0.750000 0.490000
vt 0.957846 0.370000
vt 0.250000 0.250000
vt 0.457846 0.370000
vt 0.250000 0.490000
vt 1.000000 0.500000
vt 1.000000 1.000000
vt 0.833333 1.000000
vt 0.833333 0.500000
vt 0.957846 0.130000
vt 0.457846 0.130000
vt 0.666667 1.000000
vt 0.666667 0.500000
vt 0.750000 0.010000
vt 0.250000 0.010000
vt 0.500000 1.000000
vt 0.500000 0.500000
vt 0.542154 0.130000
vt 0.042154 0.130000
vt 0.333333 1.000000
vt 0.333333 0.500000
vt 0.542154 0.370000
vt 0.042154 0.370000
vt 0.166667 1.000000
vt 0.166667 0.500000
vt -0.000000 1.000000
vt -0.000000 0.500000
vn -0.0000 0.9354 -0.3535
vn -0.0000 -0.9354 0.3535
vn 0.4768 0.3107 0.8223
vn 1.0000 -0.0000 -0.0000
vn 0.4768 -0.3107 -0.8223
vn -0.4768 -0.3107 -0.8223
vn -1.0000 0.0000 0.0000
vn -0.4768 0.3107 0.8223
usemtl None
s off
f 1/1/1 3/2/1 5/3/1
f 2/4/2 6/5/2 4/6/2
f 3/7/3 4/8/3 6/9/3 5/10/3
f 1/1/1 5/3/1 7/11/1
f 2/4/2 8/12/2 6/5/2
f 5/10/4 6/9/4 8/13/4 7/14/4
f 1/1/1 7/11/1 9/15/1
f 2/4/2 10/16/2 8/12/2
f 7/14/5 8/13/5 10/17/5 9/18/5
f 1/1/1 9/15/1 11/19/1
f 2/4/2 12/20/2 10/16/2
f 9/18/6 10/17/6 12/21/6 11/22/6
f 1/1/1 11/19/1 13/23/1
f 2/4/2 14/24/2 12/20/2
f 11/22/7 12/21/7 14/25/7 13/26/7
f 1/1/1 13/23/1 3/2/1
f 2/4/2 4/6/2 14/24/2
f 13/26/8 14/25/8 4/27/8 3/28/8
o Cylinder.002
v 0.000000 -0.455023 -16.884062
v 0.000000 21.418543 -8.617931
v 0.000000 -1.106515 -15.160106
v 0.000000 20.767052 -6.893974
v 1.698834 -0.780768 -16.022083
v 1.698834 21.092796 -7.755953
v 1.698833 -0.129277 -17.746040
v 1.698833 21.744289 -9.479910
v -0.000000 0.196469 -18.608019
v -0.000000 22.070034 -10.341887
v -1.698834 -0.129277 -17.746040
v -1.698834 21.744289 -9.479909
v -1.698834 -0.780768 -16.022083
v -1.698834 21.092796 -7.755953
vt 0.750000 0.250000
vt 0.957846 0.370000
vt 0.750000 0.490000
vt 0.250000 0.250000
vt 0.250000 0.490000
vt 0.457846 0.370000
vt 1.000000 0.500000
vt 0.833333 0.500000
vt 0.833333 1.000000
vt 1.000000 1.000000
vt 0.957846 0.130000
vt 0.457846 0.130000
vt 0.666667 0.500000
vt 0.666667 1.000000
vt 0.750000 0.010000
vt 0.250000 0.010000
vt 0.500000 0.500000
vt 0.500000 1.000000
vt 0.542154 0.130000
vt 0.042154 0.130000
vt 0.333333 0.500000
vt 0.333333 1.000000
vt 0.542154 0.370000
vt 0.042154 0.370000
vt 0.166667 0.500000
vt 0.166667 1.000000
vt -0.000000 0.500000
vt -0.000000 1.000000
vn 0.0000 -0.9354 -0.3535
vn 0.0000 0.9354 0.3535
vn 0.4768 -0.3107 0.8223
vn 1.0000 0.0000 -0.0000
vn 0.4768 0.3107 -0.8223
vn -0.4768 0.3107 -0.8223
vn -1.0000 0.0000 0.0000
vn -0.4768 -0.3107 0.8223
usemtl None
s off
f 15/29/9 19/30/9 17/31/9
f 16/32/10 18/33/10 20/34/10
f 17/35/11 19/36/11 20/37/11 18/38/11
f 15/29/9 21/39/9 19/30/9
f 16/32/10 20/34/10 22/40/10
f 19/36/12 21/41/12 22/42/12 20/37/12
f 15/29/9 23/43/9 21/39/9
f 16/32/10 22/40/10 24/44/10
f 21/41/13 23/45/13 24/46/13 22/42/13
f 15/29/9 25/47/9 23/43/9
f 16/32/10 24/44/10 26/48/10
f 23/45/14 25/49/14 26/50/14 24/46/14
f 15/29/9 27/51/9 25/47/9
f 16/32/10 26/48/10 28/52/10
f 25/49/15 27/53/15 28/54/15 26/50/15
f 15/29/9 17/31/9 27/51/9
f 16/32/10 28/52/10 18/33/10
f 27/53/16 17/55/16 18/56/16 28/54/16
o Cylinder.003
v 21.415325 21.558531 -8.392294
v -1.968041 21.558531 -8.392292
v 21.415325 19.715580 -8.392294
v -1.968041 19.715580 -8.392292
v 21.415325 20.637054 -10.091127
v -1.968041 20.637056 -10.091126
v 21.415325 22.480005 -10.091127
v -1.968041 22.480007 -10.091125
v 21.415325 23.401482 -8.392293
v -1.968041 23.401482 -8.392292
v 21.415325 22.480005 -6.693460
v -1.968041 22.480007 -6.693459
v 21.415325 20.637054 -6.693460
v -1.968041 20.637056 -6.693459
vt 0.750000 0.250000
vt 0.750000 0.490000
vt 0.957846 0.370000
vt 0.250000 0.250000
vt 0.457846 0.370000
vt 0.250000 0.490000
vt 1.000000 0.500000
vt 1.000000 1.000000
vt 0.833333 1.000000
vt 0.833333 0.500000
vt 0.957846 0.130000
vt 0.457846 0.130000
vt 0.666667 1.000000
vt 0.666667 0.500000
vt 0.750000 0.010000
vt 0.250000 0.010000
vt 0.500000 1.000000
vt 0.500000 0.500000
vt 0.542154 0.130000
vt 0.042154 0.130000
vt 0.333333 1.000000
vt 0.333333 0.500000
vt 0.542154 0.370000
vt 0.042154 0.370000
vt 0.166667 1.000000
vt 0.166667 0.500000
vt -0.000000 1.000000
vt -0.000000 0.500000
vn 1.0000 0.0000 0.0000
vn -1.0000 0.0000 0.0000
vn -0.0000 -0.8790 -0.4768
vn -0.0000 0.0000 -1.0000
vn 0.0000 0.8790 -0.4768
vn 0.0000 0.8790 0.4768
vn 0.0000 0.0000 1.0000
vn 0.0000 -0.8790 0.4768
usemtl None
s off
f 29/57/17 31/58/17 33/59/17
f 30/60/18 34/61/18 32/62/18
f 31/63/19 32/64/19 34/65/19 33/66/19
f 29/57/17 33/59/17 35/67/17
f 30/60/18 36/68/18 34/61/18
f 33/66/20 34/65/20 36/69/20 35/70/20
f 29/57/17 35/67/17 37/71/17
f 30/60/18 38/72/18 36/68/18
f 35/70/21 36/69/21 38/73/21 37/74/21
f 29/57/17 37/71/17 39/75/17
f 30/60/18 40/76/18 38/72/18
f 37/74/22 38/73/22 40/77/22 39/78/22
f 29/57/17 39/75/17 41/79/17
f 30/60/18 42/80/18 40/76/18
f 39/78/23 40/77/23 42/81/23 41/82/23
f 29/57/17 41/79/17 31/58/17
f 30/60/18 32/62/18 42/80/18
f 41/82/24 42/81/24 32/83/24 31/84/24
o Cylinder.004
v 21.404402 21.558531 -8.392294
v 44.787766 21.558531 -8.392292
v 21.404402 19.715580 -8.392294
v 44.787766 19.715580 -8.392292
v 21.404402 20.637054 -10.091127
v 44.787766 20.637056 -10.091126
v 21.404402 22.480005 -10.091127
v 44.787766 22.480007 -10.091125
v 21.404402 23.401482 -8.392293
v 44.787766 23.401482 -8.392292
v 21.404402 22.480005 -6.693460
v 44.787766 22.480007 -6.693459
v 21.404402 20.637054 -6.693460
v 44.787766 20.637056 -6.693459
vt 0.750000 0.250000
vt 0.957846 0.370000
vt 0.750000 0.490000
vt 0.250000 0.250000
vt 0.250000 0.490000
vt 0.457846 0.370000
vt 1.000000 0.500000
vt 0.833333 0.500000
vt 0.833333 1.000000
vt 1.000000 1.000000
vt 0.957846 0.130000
vt 0.457846 0.130000
vt 0.666667 0.500000
vt 0.666667 1.000000
vt 0.750000 0.010000
vt 0.250000 0.010000
vt 0.500000 0.500000
vt 0.500000 1.000000
vt 0.542154 0.130000
vt 0.042154 0.130000
vt 0.333333 0.500000
vt 0.333333 1.000000
vt 0.542154 0.370000
vt 0.042154 0.370000
vt 0.166667 0.500000
vt 0.166667 1.000000
vt -0.000000 0.500000
vt -0.000000 1.000000
vn -1.0000 0.0000 0.0000
vn 1.0000 0.0000 0.0000
vn 0.0000 -0.8790 -0.4768
vn 0.0000 0.0000 -1.0000
vn 0.0000 0.8790 -0.4768
vn -0.0000 0.8790 0.4768
vn -0.0000 0.0000 1.0000
vn -0.0000 -0.8790 0.4768
usemtl None
s off
f 43/85/25 47/86/25 45/87/25
f 44/88/26 46/89/26 48/90/26
f 45/91/27 47/92/27 48/93/27 46/94/27
f 43/85/25 49/95/25 47/86/25
f 44/88/26 48/90/26 50/96/26
f 47/92/28 49/97/28 50/98/28 48/93/28
f 43/85/25 51/99/25 49/95/25
f 44/88/26 50/96/26 52/100/26
f 49/97/29 51/101/29 52/102/29 50/98/29
f 43/85/25 53/103/25 51/99/25
f 44/88/26 52/100/26 54/104/26
f 51/101/30 53/105/30 54/106/30 52/102/30
f 43/85/25 55/107/25 53/103/25
f 44/88/26 54/104/26 56/108/26
f 53/105/31 55/109/31 56/110/31 54/106/31
f 43/85/25 45/87/25 55/107/25
f 44/88/26 56/108/26 46/89/26
f 55/109/32 45/111/32 46/112/32 56/110/32
o Cylinder.005
v 42.819725 -0.455023 -16.884062
v 42.819725 21.418543 -8.617931
v 42.819725 -1.106515 -15.160106
v 42.819725 20.767052 -6.893974
v 41.120892 -0.780768 -16.022083
v 41.120892 21.092796 -7.755953
v 41.120892 -0.129277 -17.746040
v 41.120892 21.744289 -9.479910
v 42.819725 0.196469 -18.608019
v 42.819725 22.070034 -10.341887
v 44.518559 -0.129277 -17.746040
v 44.518559 21.744289 -9.479909
v 44.518559 -0.780768 -16.022083
v 44.518559 21.092796 -7.755953
vt 0.750000 0.250000
vt 0.750000 0.490000
vt 0.957846 0.370000
vt 0.250000 0.250000
vt 0.457846 0.370000
vt 0.250000 0.490000
vt 1.000000 0.500000
vt 1.000000 1.000000
vt 0.833333 1.000000
vt 0.833333 0.500000
vt 0.957846 0.130000
vt 0.457846 0.130000
vt 0.666667 1.000000
vt 0.666667 0.500000
vt 0.750000 0.010000
vt 0.250000 0.010000
vt 0.500000 1.000000
vt 0.500000 0.500000
vt 0.542154 0.130000
vt 0.042154 0.130000
vt 0.333333 1.000000
vt 0.333333 0.500000
vt 0.542154 0.370000
vt 0.042154 0.370000
vt 0.166667 1.000000
vt 0.166667 0.500000
vt -0.000000 1.000000
vt -0.000000 0.500000
vn -0.0000 -0.9354 -0.3535
vn -0.0000 0.9354 0.3535
vn -0.4768 -0.3107 0.8223
vn -1.0000 0.0000 0.0000
vn -0.4768 0.3107 -0.8223
vn 0.4768 0.3107 -0.8223
vn 1.0000 0.0000 0.0000
vn 0.4768 -0.3107 0.8223
usemtl None
s off
f 57/113/33 59/114/33 61/115/33
f 58/116/34 62/117/34 60/118/34
f 59/119/35 60/120/35 62/121/35 61/122/35
f 57/113/33 61/115/33 63/123/33
f 58/116/34 64/124/34 62/117/34
f 61/122/36 62/121/36 64/125/36 63/126/36
f 57/113/33 63/123/33 65/127/33
f 58/116/34 66/128/34 64/124/34
f 63/126/37 64/125/37 66/129/37 65/130/37
f 57/113/33 65/127/33 67/131/33
f 58/116/34 68/132/34 66/128/34
f 65/130/38 66/129/38 68/133/38 67/134/38
f 57/113/33 67/131/33 69/135/33
f 58/116/34 70/136/34 68/132/34
f 67/134/39 68/133/39 70/137/39 69/138/39
f 57/113/33 69/135/33 59/114/33
f 58/116/34 60/118/34 70/136/34
f 69/138/40 70/137/40 60/139/40 59/140/40
o Cylinder.006
v 42.819725 21.418543 -7.859955
v 42.819725 -0.455023 0.406176
v 42.819725 22.070034 -6.135999
v 42.819725 0.196469 2.130133
v 41.120892 21.744289 -6.997977
v 41.120892 -0.129277 1.268154
v 41.120892 21.092796 -8.721933
v 41.120892 -0.780768 -0.455802
v 42.819725 20.767052 -9.583912
v 42.819725 -1.106515 -1.317780
v 44.518559 21.092796 -8.721933
v 44.518559 -0.780768 -0.455802
v 44.518559 21.744289 -6.997977
v 44.518559 -0.129277 1.268154
vt 0.750000 0.250000
vt 0.957846 0.370000
vt 0.750000 0.490000
vt 0.250000 0.250000
vt 0.250000 0.490000
vt 0.457846 0.370000
vt 1.000000 0.500000
vt 0.833333 0.500000
vt 0.833333 1.000000
vt 1.000000 1.000000
vt 0.957846 0.130000
vt 0.457846 0.130000
vt 0.666667 0.500000
vt 0.666667 1.000000
vt 0.750000 0.010000
vt 0.250000 0.010000
vt 0.500000 0.500000
vt 0.500000 1.000000
vt 0.542154 0.130000
vt 0.042154 0.130000
vt 0.333333 0.500000
vt 0.333333 1.000000
vt 0.542154 0.370000
vt 0.042154 0.370000
vt 0.166667 0.500000
vt 0.166667 1.000000
vt -0.000000 0.500000
vt -0.000000 1.000000
vn 0.0000 0.9354 -0.3535
vn 0.0000 -0.9354 0.3535
vn -0.4768 0.3107 0.8223
vn -1.0000 0.0000 0.0000
vn -0.4768 -0.3107 -0.8223
vn 0.4768 -0.3107 -0.8223
vn 1.0000 -0.0000 0.0000
vn 0.4768 0.3107 0.8223
usemtl None
s off
f 71/141/41 75/142/41 73/143/41
f 72/144/42 74/145/42 76/146/42
f 73/147/43 75/148/43 76/149/43 74/150/43
f 71/141/41 77/151/41 75/142/41
f 72/144/42 76/146/42 78/152/42
f 75/148/44 77/153/44 78/154/44 76/149/44
f 71/141/41 79/155/41 77/151/41
f 72/144/42 78/152/42 80/156/42
f 77/153/45 79/157/45 80/158/45 78/154/45
f 71/141/41 81/159/41 79/155/41
f 72/144/42 80/156/42 82/160/42
f 79/157/46 81/161/46 82/162/46 80/158/46
f 71/141/41 83/163/41 81/159/41
f 72/144/42 82/160/42 84/164/42
f 81/161/47 83/165/47 84/166/47 82/162/47
f 71/141/41 73/143/41 83/163/41
f 72/144/42 84/164/42 74/145/42
f 83/165/48 73/167/48 74/168/48 84/166/48
